<svg id="container" xmlns="http://www.w3.org/2000/svg" width="100%" height="100%" xmlns:xlink="http://www.w3.org/1999/xlink">
	<style type="text/css"><![CDATA[
		.hollow {
			fill: #101010;
			stroke: #aed581;
			stroke-width: 2;
		}
		.solid {
			fill: #aed581;
			stroke: #aed581;
			stroke-width: 0.2;
		}
		.outline {
			fill: #101010;
			stroke: #aed581;
			stroke-width: 7;
		}
		.icon {
			transform: translate(16px,16px) scale(0.22);
		}
	]]></style>
	<g id="router" class="icon">
		<circle class="outline" r="70"/>
		<g transform="translate(-5,-12)" class="solid" style="stroke-width:2">
			<path id="arrow2" d="M2 8 L38 8 Q40 8 40 6 L40 2 Q40 0 42 1 L54 11 Q56 12 54 13 L42 23 Q40 24 40 22 L40 18 Q40 16 38 16 L2 16 Q0 16 0 14 L0 10 Q0 8 2 8 Z"/>
			<use href="#arrow2" transform="rotate(90 5 12)"/>
			<use href="#arrow2" transform="rotate(180 5 12)"/>
			<use href="#arrow2" transform="rotate(270 5 12)"/>
		</g>
		<g class="hollow" style="stroke-width:5">
			<ellipse transform="rotate(45 0 0)" rx="35" ry="10"/>
			<ellipse transform="rotate(-45 0 0)" rx="35" ry="10"/>
			<circle r="15"/>
		</g>
	</g>
</svg>
